<svg xmlns="http://www.w3.org/2000/svg" viewBox="0 0 1100 860" font-family="'Segoe UI', system-ui, sans-serif">
  <defs>
    <linearGradient id="bgGrad" x1="0" y1="0" x2="0" y2="1">
      <stop offset="0%" stop-color="#0f1117"/>
      <stop offset="100%" stop-color="#1a1d2e"/>
    </linearGradient>
    <linearGradient id="stageGrad" x1="0" y1="0" x2="1" y2="0">
      <stop offset="0%" stop-color="#1e2235"/>
      <stop offset="100%" stop-color="#252840"/>
    </linearGradient>
    <linearGradient id="reasonGrad" x1="0" y1="0" x2="1" y2="0">
      <stop offset="0%" stop-color="#2a1f4a"/>
      <stop offset="100%" stop-color="#3b2260"/>
    </linearGradient>
    <linearGradient id="actionGrad" x1="0" y1="0" x2="0" y2="1">
      <stop offset="0%" stop-color="#1a2a3a"/>
      <stop offset="100%" stop-color="#1e3248"/>
    </linearGradient>
    <filter id="glow">
      <feGaussianBlur stdDeviation="3" result="coloredBlur"/>
      <feMerge><feMergeNode in="coloredBlur"/><feMergeNode in="SourceGraphic"/></feMerge>
    </filter>
    <filter id="glow2">
      <feGaussianBlur stdDeviation="2" result="coloredBlur"/>
      <feMerge><feMergeNode in="coloredBlur"/><feMergeNode in="SourceGraphic"/></feMerge>
    </filter>
    <marker id="arrow" markerWidth="8" markerHeight="8" refX="6" refY="3" orient="auto">
      <path d="M0,0 L0,6 L8,3 Z" fill="#4a5568"/>
    </marker>
    <marker id="arrowBlue" markerWidth="8" markerHeight="8" refX="6" refY="3" orient="auto">
      <path d="M0,0 L0,6 L8,3 Z" fill="#6366f1"/>
    </marker>
    <marker id="arrowOrange" markerWidth="8" markerHeight="8" refX="6" refY="3" orient="auto">
      <path d="M0,0 L0,6 L8,3 Z" fill="#f59e0b"/>
    </marker>
    <marker id="arrowGreen" markerWidth="8" markerHeight="8" refX="6" refY="3" orient="auto">
      <path d="M0,0 L0,6 L8,3 Z" fill="#10b981"/>
    </marker>
  </defs>

  <!-- Background -->
  <rect width="1100" height="860" fill="url(#bgGrad)"/>

  <!-- Title -->
  <text x="550" y="38" text-anchor="middle" font-size="20" font-weight="700" fill="#e2e8f0" letter-spacing="1">Agent Execution Loop</text>
  <text x="550" y="56" text-anchor="middle" font-size="12" fill="#64748b">9-Stage OODA Pipeline · 14 Action Types</text>

  <!-- ── PIPELINE COLUMN ─────────────────────────────────── -->

  <!-- Stage column header -->
  <rect x="30" y="72" width="340" height="26" rx="5" fill="#1e2235" opacity="0.8"/>
  <text x="200" y="89" text-anchor="middle" font-size="11" font-weight="600" fill="#94a3b8" letter-spacing="2">PIPELINE STAGES</text>

  <!-- Stage boxes -->
  <!-- 1 observe -->
  <rect x="30" y="105" width="340" height="52" rx="8" fill="url(#stageGrad)" stroke="#334155" stroke-width="1"/>
  <rect x="30" y="105" width="6" height="52" rx="3" fill="#6366f1"/>
  <text x="52" y="123" font-size="10" fill="#6366f1" font-weight="700" letter-spacing="1">01 · OBSERVE</text>
  <text x="52" y="140" font-size="12" fill="#cbd5e1">Collect context: inbox messages, pipe inputs,</text>
  <text x="52" y="153" font-size="12" fill="#cbd5e1">blackboard snapshot, conversation history</text>

  <!-- arrow -->
  <line x1="200" y1="157" x2="200" y2="170" stroke="#4a5568" stroke-width="1.5" marker-end="url(#arrow)"/>

  <!-- 2 understand -->
  <rect x="30" y="170" width="340" height="52" rx="8" fill="url(#stageGrad)" stroke="#334155" stroke-width="1"/>
  <rect x="30" y="170" width="6" height="52" rx="3" fill="#8b5cf6"/>
  <text x="52" y="188" font-size="10" fill="#8b5cf6" font-weight="700" letter-spacing="1">02 · UNDERSTAND</text>
  <text x="52" y="205" font-size="12" fill="#cbd5e1">Parse and classify the incoming prompt —</text>
  <text x="52" y="218" font-size="12" fill="#cbd5e1">what kind of task is this?</text>

  <line x1="200" y1="222" x2="200" y2="235" stroke="#4a5568" stroke-width="1.5" marker-end="url(#arrow)"/>

  <!-- 3 read -->
  <rect x="30" y="235" width="340" height="52" rx="8" fill="url(#stageGrad)" stroke="#334155" stroke-width="1"/>
  <rect x="30" y="235" width="6" height="52" rx="3" fill="#06b6d4"/>
  <text x="52" y="253" font-size="10" fill="#06b6d4" font-weight="700" letter-spacing="1">03 · READ</text>
  <text x="52" y="270" font-size="12" fill="#cbd5e1">Pull relevant data from conversation history</text>
  <text x="52" y="283" font-size="12" fill="#cbd5e1">and memory store</text>

  <line x1="200" y1="287" x2="200" y2="300" stroke="#4a5568" stroke-width="1.5" marker-end="url(#arrow)"/>

  <!-- 4 code_intel -->
  <rect x="30" y="300" width="340" height="52" rx="8" fill="url(#stageGrad)" stroke="#334155" stroke-width="1"/>
  <rect x="30" y="300" width="6" height="52" rx="3" fill="#14b8a6"/>
  <text x="52" y="318" font-size="10" fill="#14b8a6" font-weight="700" letter-spacing="1">04 · CODE INTEL</text>
  <text x="52" y="335" font-size="12" fill="#cbd5e1">Analyze code artifacts in context: symbols,</text>
  <text x="52" y="348" font-size="12" fill="#cbd5e1">file paths, function names</text>

  <line x1="200" y1="352" x2="200" y2="365" stroke="#4a5568" stroke-width="1.5" marker-end="url(#arrow)"/>

  <!-- 5 locate -->
  <rect x="30" y="365" width="340" height="52" rx="8" fill="url(#stageGrad)" stroke="#334155" stroke-width="1"/>
  <rect x="30" y="365" width="6" height="52" rx="3" fill="#0ea5e9"/>
  <text x="52" y="383" font-size="10" fill="#0ea5e9" font-weight="700" letter-spacing="1">05 · LOCATE</text>
  <text x="52" y="400" font-size="12" fill="#cbd5e1">Identify which tools and MCP capabilities</text>
  <text x="52" y="413" font-size="12" fill="#cbd5e1">are relevant to this task</text>

  <line x1="200" y1="417" x2="200" y2="430" stroke="#4a5568" stroke-width="1.5" marker-end="url(#arrow)"/>

  <!-- 6 inject -->
  <rect x="30" y="430" width="340" height="52" rx="8" fill="url(#stageGrad)" stroke="#334155" stroke-width="1"/>
  <rect x="30" y="430" width="6" height="52" rx="3" fill="#f59e0b"/>
  <text x="52" y="448" font-size="10" fill="#f59e0b" font-weight="700" letter-spacing="1">06 · INJECT</text>
  <text x="52" y="465" font-size="12" fill="#cbd5e1">Assemble final prompt: system prompt,</text>
  <text x="52" y="478" font-size="12" fill="#cbd5e1">role constraints, context, tool list</text>

  <line x1="200" y1="482" x2="200" y2="495" stroke="#4a5568" stroke-width="1.5" marker-end="url(#arrow)"/>

  <!-- 7 reason — highlighted -->
  <rect x="30" y="495" width="340" height="62" rx="8" fill="url(#reasonGrad)" stroke="#6366f1" stroke-width="1.5" filter="url(#glow2)"/>
  <rect x="30" y="495" width="6" height="62" rx="3" fill="#a855f7"/>
  <text x="52" y="516" font-size="10" fill="#c084fc" font-weight="700" letter-spacing="1">07 · REASON  ⬡ LLM CALL</text>
  <text x="52" y="533" font-size="12" fill="#e2e8f0">Call the AI provider with assembled prompt.</text>
  <text x="52" y="547" font-size="12" fill="#e2e8f0">Parse response into action directives.</text>
  <text x="52" y="557" font-size="10" fill="#7c3aed">→ Dispatches to 14 action types (see right)</text>

  <line x1="200" y1="557" x2="200" y2="570" stroke="#4a5568" stroke-width="1.5" marker-end="url(#arrow)"/>

  <!-- 8 transform -->
  <rect x="30" y="570" width="340" height="52" rx="8" fill="url(#stageGrad)" stroke="#334155" stroke-width="1"/>
  <rect x="30" y="570" width="6" height="52" rx="3" fill="#ec4899"/>
  <text x="52" y="588" font-size="10" fill="#ec4899" font-weight="700" letter-spacing="1">08 · TRANSFORM</text>
  <text x="52" y="605" font-size="12" fill="#cbd5e1">Post-process LLM output: strip artifacts,</text>
  <text x="52" y="618" font-size="12" fill="#cbd5e1">normalize whitespace and formatting</text>

  <line x1="200" y1="622" x2="200" y2="635" stroke="#4a5568" stroke-width="1.5" marker-end="url(#arrow)"/>

  <!-- 9 validate -->
  <rect x="30" y="635" width="340" height="62" rx="8" fill="url(#stageGrad)" stroke="#334155" stroke-width="1"/>
  <rect x="30" y="635" width="6" height="62" rx="3" fill="#f97316"/>
  <text x="52" y="653" font-size="10" fill="#f97316" font-weight="700" letter-spacing="1">09 · VALIDATE</text>
  <text x="52" y="670" font-size="12" fill="#cbd5e1">Check output correctness. If invalid:</text>
  <text x="52" y="683" font-size="12" fill="#cbd5e1">loop back to REASON (up to 3 retries).</text>
  <text x="52" y="694" font-size="10" fill="#7c3aed">↺ retry arc → back to stage 07</text>

  <!-- Retry arc -->
  <path d="M 30 666 C -10 666 -10 526 30 526" stroke="#f97316" stroke-width="1.5" fill="none" stroke-dasharray="5,3" marker-end="url(#arrowOrange)"/>
  <text x="-18" y="600" font-size="9" fill="#f97316" transform="rotate(-90, -18, 600)">RETRY</text>

  <line x1="200" y1="697" x2="200" y2="710" stroke="#4a5568" stroke-width="1.5" marker-end="url(#arrow)"/>

  <!-- respond -->
  <rect x="30" y="710" width="340" height="52" rx="8" fill="#0f2820" stroke="#10b981" stroke-width="1.5"/>
  <rect x="30" y="710" width="6" height="52" rx="3" fill="#10b981"/>
  <text x="52" y="728" font-size="10" fill="#10b981" font-weight="700" letter-spacing="1">RESPOND  ✓ EMIT RESULT</text>
  <text x="52" y="745" font-size="12" fill="#cbd5e1">Emit agent_finished event. Feed all</text>
  <text x="52" y="758" font-size="12" fill="#cbd5e1">connected pipes with result.</text>

  <!-- ── ACTION TYPES COLUMN ─────────────────────────────── -->

  <!-- Actions column header -->
  <rect x="400" y="72" width="670" height="26" rx="5" fill="#1a2235" opacity="0.8"/>
  <text x="735" y="89" text-anchor="middle" font-size="11" font-weight="600" fill="#94a3b8" letter-spacing="2">ACTION TYPES (dispatched from REASON stage)</text>

  <!-- Connection line from reason stage to actions -->
  <line x1="370" y1="526" x2="400" y2="526" stroke="#6366f1" stroke-width="2" stroke-dasharray="4,3" marker-end="url(#arrowBlue)"/>

  <!-- Action group: Filesystem -->
  <rect x="400" y="105" width="200" height="26" rx="5" fill="#1a2235"/>
  <text x="500" y="121" text-anchor="middle" font-size="10" font-weight="700" fill="#64748b" letter-spacing="1.5">FILESYSTEM</text>

  <rect x="400" y="133" width="200" height="36" rx="6" fill="url(#actionGrad)" stroke="#1e3a5f" stroke-width="1"/>
  <text x="416" y="149" font-size="10" fill="#38bdf8" font-weight="700">bash_action</text>
  <text x="416" y="163" font-size="10" fill="#64748b">Run shell cmd in sandbox subprocess</text>

  <rect x="400" y="173" width="200" height="36" rx="6" fill="url(#actionGrad)" stroke="#1e3a5f" stroke-width="1"/>
  <text x="416" y="189" font-size="10" fill="#38bdf8" font-weight="700">read_action</text>
  <text x="416" y="203" font-size="10" fill="#64748b">Read file contents from disk</text>

  <rect x="400" y="213" width="200" height="36" rx="6" fill="url(#actionGrad)" stroke="#1e3a5f" stroke-width="1"/>
  <text x="416" y="229" font-size="10" fill="#38bdf8" font-weight="700">write_action</text>
  <text x="416" y="243" font-size="10" fill="#64748b">Write or create a file</text>

  <rect x="400" y="253" width="200" height="36" rx="6" fill="url(#actionGrad)" stroke="#1e3a5f" stroke-width="1"/>
  <text x="416" y="269" font-size="10" fill="#38bdf8" font-weight="700">edit_action</text>
  <text x="416" y="283" font-size="10" fill="#64748b">Apply targeted replacement to a file</text>

  <rect x="400" y="293" width="200" height="36" rx="6" fill="url(#actionGrad)" stroke="#1e3a5f" stroke-width="1"/>
  <text x="416" y="309" font-size="10" fill="#38bdf8" font-weight="700">glob_action</text>
  <text x="416" y="323" font-size="10" fill="#64748b">Return files matching a pattern</text>

  <rect x="400" y="333" width="200" height="36" rx="6" fill="url(#actionGrad)" stroke="#1e3a5f" stroke-width="1"/>
  <text x="416" y="349" font-size="10" fill="#38bdf8" font-weight="700">grep_action</text>
  <text x="416" y="363" font-size="10" fill="#64748b">Search file contents via regex</text>

  <!-- Action group: Network -->
  <rect x="615" y="105" width="200" height="26" rx="5" fill="#1a2235"/>
  <text x="715" y="121" text-anchor="middle" font-size="10" font-weight="700" fill="#64748b" letter-spacing="1.5">NETWORK &amp; TOOLS</text>

  <rect x="615" y="133" width="200" height="36" rx="6" fill="url(#actionGrad)" stroke="#1e3a5f" stroke-width="1"/>
  <text x="631" y="149" font-size="10" fill="#a78bfa" font-weight="700">web_fetch_action</text>
  <text x="631" y="163" font-size="10" fill="#64748b">HTTP GET/POST to external URL</text>

  <rect x="615" y="173" width="200" height="36" rx="6" fill="url(#actionGrad)" stroke="#1e3a5f" stroke-width="1"/>
  <text x="631" y="189" font-size="10" fill="#a78bfa" font-weight="700">web_search_action</text>
  <text x="631" y="203" font-size="10" fill="#64748b">Query a search API; return results</text>

  <rect x="615" y="213" width="200" height="36" rx="6" fill="url(#actionGrad)" stroke="#1e3a5f" stroke-width="1"/>
  <text x="631" y="229" font-size="10" fill="#a78bfa" font-weight="700">mcp_tool_action</text>
  <text x="631" y="243" font-size="10" fill="#64748b">JSON-RPC 2.0 call to MCP server</text>

  <!-- Action group: Agent coordination -->
  <rect x="615" y="265" width="200" height="26" rx="5" fill="#1a2235"/>
  <text x="715" y="281" text-anchor="middle" font-size="10" font-weight="700" fill="#64748b" letter-spacing="1.5">AGENT COORDINATION</text>

  <rect x="615" y="293" width="200" height="36" rx="6" fill="url(#actionGrad)" stroke="#1e3a5f" stroke-width="1"/>
  <text x="631" y="309" font-size="10" fill="#f472b6" font-weight="700">messaging_actions</text>
  <text x="631" y="323" font-size="10" fill="#64748b">Send message or broadcast to agents</text>

  <rect x="615" y="333" width="200" height="36" rx="6" fill="url(#actionGrad)" stroke="#1e3a5f" stroke-width="1"/>
  <text x="631" y="349" font-size="10" fill="#f472b6" font-weight="700">blackboard_actions</text>
  <text x="631" y="363" font-size="10" fill="#64748b">Read/write shared key-value store</text>

  <rect x="615" y="373" width="200" height="36" rx="6" fill="url(#actionGrad)" stroke="#1e3a5f" stroke-width="1"/>
  <text x="631" y="389" font-size="10" fill="#f472b6" font-weight="700">task_action</text>
  <text x="631" y="403" font-size="10" fill="#64748b">Spawn sub-task / delegate to agent</text>

  <!-- Action group: Memory/State -->
  <rect x="830" y="105" width="240" height="26" rx="5" fill="#1a2235"/>
  <text x="950" y="121" text-anchor="middle" font-size="10" font-weight="700" fill="#64748b" letter-spacing="1.5">MEMORY &amp; STATE</text>

  <rect x="830" y="133" width="240" height="36" rx="6" fill="url(#actionGrad)" stroke="#1e3a5f" stroke-width="1"/>
  <text x="846" y="149" font-size="10" fill="#34d399" font-weight="700">memory_actions</text>
  <text x="846" y="163" font-size="10" fill="#64748b">Read from or append to conv. history</text>

  <rect x="830" y="173" width="240" height="36" rx="6" fill="url(#actionGrad)" stroke="#1e3a5f" stroke-width="1"/>
  <text x="846" y="189" font-size="10" fill="#34d399" font-weight="700">todo_write_action</text>
  <text x="846" y="203" font-size="10" fill="#64748b">Persist task items across turns</text>

  <!-- ── EVENT BUS section ─────────────────────────────── -->
  <rect x="400" y="440" width="670" height="26" rx="5" fill="#1a2235"/>
  <text x="735" y="456" text-anchor="middle" font-size="10" font-weight="700" fill="#94a3b8" letter-spacing="2">EVENTS EMITTED (fired via EventBus → WebSocket clients)</text>

  <!-- Event chips row 1 -->
  <rect x="400" y="470" width="156" height="30" rx="6" fill="#1a2235" stroke="#1e3a4f" stroke-width="1"/>
  <circle cx="416" cy="485" r="4" fill="#6366f1"/>
  <text x="426" y="489" font-size="10" fill="#94a3b8">agent_started</text>

  <rect x="562" y="470" width="156" height="30" rx="6" fill="#1a2235" stroke="#1e3a4f" stroke-width="1"/>
  <circle cx="578" cy="485" r="4" fill="#8b5cf6"/>
  <text x="588" y="489" font-size="10" fill="#94a3b8">work_item_started</text>

  <rect x="724" y="470" width="156" height="30" rx="6" fill="#1a2235" stroke="#1e3a4f" stroke-width="1"/>
  <circle cx="740" cy="485" r="4" fill="#10b981"/>
  <text x="750" y="489" font-size="10" fill="#94a3b8">agent_finished</text>

  <rect x="886" y="470" width="182" height="30" rx="6" fill="#1a2235" stroke="#1e3a4f" stroke-width="1"/>
  <circle cx="902" cy="485" r="4" fill="#ef4444"/>
  <text x="912" y="489" font-size="10" fill="#94a3b8">agent_failed</text>

  <!-- Event chips row 2 -->
  <rect x="400" y="506" width="156" height="30" rx="6" fill="#1a2235" stroke="#1e3a4f" stroke-width="1"/>
  <circle cx="416" cy="521" r="4" fill="#f59e0b"/>
  <text x="426" y="525" font-size="10" fill="#94a3b8">agent_cancelled</text>

  <rect x="562" y="506" width="156" height="30" rx="6" fill="#1a2235" stroke="#1e3a4f" stroke-width="1"/>
  <circle cx="578" cy="521" r="4" fill="#14b8a6"/>
  <text x="588" y="525" font-size="10" fill="#94a3b8">blackboard_updated</text>

  <rect x="724" y="506" width="156" height="30" rx="6" fill="#1a2235" stroke="#1e3a4f" stroke-width="1"/>
  <circle cx="740" cy="521" r="4" fill="#06b6d4"/>
  <text x="750" y="525" font-size="10" fill="#94a3b8">mcp_connected</text>

  <rect x="886" y="506" width="182" height="30" rx="6" fill="#1a2235" stroke="#1e3a4f" stroke-width="1"/>
  <circle cx="902" cy="521" r="4" fill="#f97316"/>
  <text x="912" y="525" font-size="10" fill="#94a3b8">quota_exceeded</text>

  <!-- ── LLM Providers section ─────────────────────────── -->
  <rect x="400" y="556" width="670" height="26" rx="5" fill="#1a2235"/>
  <text x="735" y="572" text-anchor="middle" font-size="10" font-weight="700" fill="#94a3b8" letter-spacing="2">LLM PROVIDERS (16 total · configured via llm_factory)</text>

  <!-- Cloud row -->
  <text x="406" y="596" font-size="9" fill="#4a5568" letter-spacing="1">CLOUD</text>
  <rect x="440" y="582" width="76" height="22" rx="4" fill="#1e2a3a" stroke="#2d4a6a" stroke-width="1"/>
  <text x="478" y="597" text-anchor="middle" font-size="9" fill="#7dd3fc">anthropic</text>
  <rect x="522" y="582" width="56" height="22" rx="4" fill="#1e2a3a" stroke="#2d4a6a" stroke-width="1"/>
  <text x="550" y="597" text-anchor="middle" font-size="9" fill="#7dd3fc">openai</text>
  <rect x="584" y="582" width="54" height="22" rx="4" fill="#1e2a3a" stroke="#2d4a6a" stroke-width="1"/>
  <text x="611" y="597" text-anchor="middle" font-size="9" fill="#7dd3fc">google</text>
  <rect x="644" y="582" width="40" height="22" rx="4" fill="#1e2a3a" stroke="#2d4a6a" stroke-width="1"/>
  <text x="664" y="597" text-anchor="middle" font-size="9" fill="#7dd3fc">groq</text>
  <rect x="690" y="582" width="54" height="22" rx="4" fill="#1e2a3a" stroke="#2d4a6a" stroke-width="1"/>
  <text x="717" y="597" text-anchor="middle" font-size="9" fill="#7dd3fc">mistral</text>
  <rect x="750" y="582" width="64" height="22" rx="4" fill="#1e2a3a" stroke="#2d4a6a" stroke-width="1"/>
  <text x="782" y="597" text-anchor="middle" font-size="9" fill="#7dd3fc">deepseek</text>
  <rect x="820" y="582" width="30" height="22" rx="4" fill="#1e2a3a" stroke="#2d4a6a" stroke-width="1"/>
  <text x="835" y="597" text-anchor="middle" font-size="9" fill="#7dd3fc">xai</text>
  <rect x="856" y="582" width="80" height="22" rx="4" fill="#1e2a3a" stroke="#2d4a6a" stroke-width="1"/>
  <text x="896" y="597" text-anchor="middle" font-size="9" fill="#7dd3fc">openrouter</text>
  <rect x="942" y="582" width="66" height="22" rx="4" fill="#1e2a3a" stroke="#2d4a6a" stroke-width="1"/>
  <text x="975" y="597" text-anchor="middle" font-size="9" fill="#7dd3fc">together</text>

  <!-- Local row -->
  <text x="406" y="625" font-size="9" fill="#4a5568" letter-spacing="1">LOCAL</text>
  <rect x="440" y="612" width="52" height="22" rx="4" fill="#1e2a3a" stroke="#2d4a4a" stroke-width="1"/>
  <text x="466" y="627" text-anchor="middle" font-size="9" fill="#6ee7b7">ollama</text>
  <rect x="498" y="612" width="62" height="22" rx="4" fill="#1e2a3a" stroke="#2d4a4a" stroke-width="1"/>
  <text x="529" y="627" text-anchor="middle" font-size="9" fill="#6ee7b7">llamacpp</text>
  <rect x="566" y="612" width="66" height="22" rx="4" fill="#1e2a3a" stroke="#2d4a4a" stroke-width="1"/>
  <text x="599" y="627" text-anchor="middle" font-size="9" fill="#6ee7b7">lmstudio</text>
  <rect x="638" y="612" width="38" height="22" rx="4" fill="#1e2a3a" stroke="#2d4a4a" stroke-width="1"/>
  <text x="657" y="627" text-anchor="middle" font-size="9" fill="#6ee7b7">vllm</text>
  <rect x="682" y="612" width="44" height="22" rx="4" fill="#1e2a3a" stroke="#2d4a4a" stroke-width="1"/>
  <text x="704" y="627" text-anchor="middle" font-size="9" fill="#6ee7b7">llama</text>
  <rect x="732" y="612" width="52" height="22" rx="4" fill="#1e2a3a" stroke="#2d4a4a" stroke-width="1"/>
  <text x="758" y="627" text-anchor="middle" font-size="9" fill="#6ee7b7">custom</text>
  <rect x="790" y="612" width="42" height="22" rx="4" fill="#1e2a3a" stroke="#2d4a4a" stroke-width="1"/>
  <text x="811" y="627" text-anchor="middle" font-size="9" fill="#94a3b8">mock</text>

  <!-- ── PERFORMANCE CONSTRAINTS ─────────────────────────── -->
  <rect x="400" y="650" width="670" height="26" rx="5" fill="#1a2235"/>
  <text x="735" y="666" text-anchor="middle" font-size="10" font-weight="700" fill="#94a3b8" letter-spacing="2">HARD PERFORMANCE CONSTRAINTS</text>

  <rect x="400" y="680" width="670" height="88" rx="8" fill="#0f1e0f" stroke="#1a4a1a" stroke-width="1"/>

  <text x="416" y="700" font-size="10" fill="#64748b">Agent spawn</text>
  <text x="560" y="700" font-size="10" fill="#4ade80" font-weight="700">&lt; 100 ms</text>
  <text x="640" y="700" font-size="10" fill="#64748b">Concurrent agents w/o degradation</text>
  <text x="900" y="700" font-size="10" fill="#4ade80" font-weight="700">≥ 20</text>

  <text x="416" y="722" font-size="10" fill="#64748b">First token to caller</text>
  <text x="560" y="722" font-size="10" fill="#4ade80" font-weight="700">&lt; 500 ms</text>
  <text x="640" y="722" font-size="10" fill="#64748b">WebSocket event delivery</text>
  <text x="900" y="722" font-size="10" fill="#4ade80" font-weight="700">&lt; 200 ms</text>

  <text x="416" y="744" font-size="10" fill="#64748b">LLM retry policy</text>
  <text x="560" y="744" font-size="10" fill="#4ade80" font-weight="700">3× backoff 1s/2s/4s</text>
  <text x="640" y="744" font-size="10" fill="#64748b">Token introspection cache</text>
  <text x="900" y="744" font-size="10" fill="#4ade80" font-weight="700">60 s TTL</text>

  <line x1="400" y1="756" x2="1070" y2="756" stroke="#1a4a1a" stroke-width="1"/>
  <text x="416" y="760" font-size="9" fill="#ef4444">✕  API keys never logged or returned in responses   ✕  bash sandbox: no outbound network by default   ✕  C ABI frozen — breaking change = major version bump</text>

  <!-- Footer -->
  <text x="550" y="840" text-anchor="middle" font-size="10" fill="#334155">agent/ (libagent_engine.so)  ·  C ABI: c_api.h  ·  Agent Studio</text>
</svg>
