<svg xmlns="http://www.w3.org/2000/svg" viewBox="0 0 1160 1040" font-family="'Segoe UI', system-ui, sans-serif">
  <defs>
    <linearGradient id="bg" x1="0" y1="0" x2="0" y2="1">
      <stop offset="0%" stop-color="#0d1117"/>
      <stop offset="100%" stop-color="#161b27"/>
    </linearGradient>
    <linearGradient id="readGrad" x1="0" y1="0" x2="1" y2="0">
      <stop offset="0%" stop-color="#0f2040"/>
      <stop offset="100%" stop-color="#132848"/>
    </linearGradient>
    <linearGradient id="assembleGrad" x1="0" y1="0" x2="1" y2="0">
      <stop offset="0%" stop-color="#2a1f00"/>
      <stop offset="100%" stop-color="#362900"/>
    </linearGradient>
    <linearGradient id="llmGrad" x1="0" y1="0" x2="1" y2="0">
      <stop offset="0%" stop-color="#1f0a40"/>
      <stop offset="100%" stop-color="#2a0f58"/>
    </linearGradient>
    <linearGradient id="outGrad" x1="0" y1="0" x2="1" y2="0">
      <stop offset="0%" stop-color="#0a1f14"/>
      <stop offset="100%" stop-color="#0d2618"/>
    </linearGradient>
    <linearGradient id="entryGrad" x1="0" y1="0" x2="1" y2="0">
      <stop offset="0%" stop-color="#0f1a2a"/>
      <stop offset="100%" stop-color="#142030"/>
    </linearGradient>
    <marker id="arr" markerWidth="7" markerHeight="7" refX="5" refY="3" orient="auto">
      <path d="M0,0 L0,6 L7,3 Z" fill="#4a6080"/>
    </marker>
    <marker id="arrBlue" markerWidth="7" markerHeight="7" refX="5" refY="3" orient="auto">
      <path d="M0,0 L0,6 L7,3 Z" fill="#3b82f6"/>
    </marker>
    <marker id="arrYellow" markerWidth="7" markerHeight="7" refX="5" refY="3" orient="auto">
      <path d="M0,0 L0,6 L7,3 Z" fill="#f59e0b"/>
    </marker>
    <marker id="arrPurple" markerWidth="7" markerHeight="7" refX="5" refY="3" orient="auto">
      <path d="M0,0 L0,6 L7,3 Z" fill="#a855f7"/>
    </marker>
    <marker id="arrGreen" markerWidth="7" markerHeight="7" refX="5" refY="3" orient="auto">
      <path d="M0,0 L0,6 L7,3 Z" fill="#22c55e"/>
    </marker>
    <marker id="arrOrange" markerWidth="7" markerHeight="7" refX="5" refY="3" orient="auto">
      <path d="M0,0 L0,6 L7,3 Z" fill="#f97316"/>
    </marker>
    <filter id="glow">
      <feGaussianBlur stdDeviation="2.5" result="b"/>
      <feMerge><feMergeNode in="b"/><feMergeNode in="SourceGraphic"/></feMerge>
    </filter>
  </defs>

  <!-- Background -->
  <rect width="1160" height="1040" fill="url(#bg)"/>

  <!-- ══ TITLE ══════════════════════════════════════════════════════ -->
  <text x="580" y="34" text-anchor="middle" font-size="19" font-weight="700" fill="#e2e8f0" letter-spacing="0.5">Prompt Flow — From User Input to Agent Response</text>
  <text x="580" y="52" text-anchor="middle" font-size="11" fill="#4a6080">how the prompt is read, assembled, consumed, and returned at each pipeline stage</text>

  <!-- ══ LEGEND ══════════════════════════════════════════════════════ -->
  <rect x="20" y="62" width="1120" height="22" rx="4" fill="#0f1520" stroke="#1e2d40" stroke-width="1"/>
  <rect x="30" y="68" width="10" height="10" rx="2" fill="#1d4ed8"/>
  <text x="46" y="78" font-size="9" fill="#64748b">Prompt READ (context building)</text>
  <rect x="210" y="68" width="10" height="10" rx="2" fill="#d97706"/>
  <text x="226" y="78" font-size="9" fill="#64748b">Prompt ASSEMBLED into full LLM input</text>
  <rect x="460" y="68" width="10" height="10" rx="2" fill="#7c3aed"/>
  <text x="476" y="78" font-size="9" fill="#64748b">Prompt CONSUMED by LLM</text>
  <rect x="660" y="68" width="10" height="10" rx="2" fill="#15803d"/>
  <text x="676" y="78" font-size="9" fill="#64748b">Output processing</text>
  <rect x="810" y="68" width="10" height="10" rx="2" fill="#f97316"/>
  <text x="826" y="78" font-size="9" fill="#64748b">Retry (validate → reason)</text>

  <!-- ══ ENTRY FLOW ══════════════════════════════════════════════════ -->
  <!-- User box -->
  <rect x="20" y="95" width="90" height="44" rx="7" fill="url(#entryGrad)" stroke="#1e3a5f" stroke-width="1.5"/>
  <text x="65" y="114" text-anchor="middle" font-size="11" fill="#93c5fd" font-weight="700">User</text>
  <text x="65" y="128" text-anchor="middle" font-size="9" fill="#4a6080">types prompt</text>

  <!-- arrow -->
  <line x1="110" y1="117" x2="148" y2="117" stroke="#3b82f6" stroke-width="1.5" marker-end="url(#arrBlue)"/>

  <!-- React UI box -->
  <rect x="150" y="95" width="110" height="44" rx="7" fill="url(#entryGrad)" stroke="#1e3a5f" stroke-width="1.5"/>
  <text x="205" y="114" text-anchor="middle" font-size="11" fill="#93c5fd" font-weight="700">React UI</text>
  <text x="205" y="128" text-anchor="middle" font-size="9" fill="#4a6080">captures input</text>

  <!-- HTTP call annotation -->
  <line x1="260" y1="117" x2="348" y2="117" stroke="#3b82f6" stroke-width="1.5" marker-end="url(#arrBlue)"/>
  <rect x="258" y="98" width="94" height="14" rx="3" fill="#0d1520"/>
  <text x="305" y="109" text-anchor="middle" font-size="8" fill="#3b82f6">POST /api/agents/{id}/run</text>
  <text x="305" y="120" text-anchor="middle" font-size="8" fill="#1e4a6a">{ "prompt": "..." }</text>

  <!-- Agent Server box -->
  <rect x="350" y="95" width="120" height="44" rx="7" fill="url(#entryGrad)" stroke="#1e3a5f" stroke-width="1.5"/>
  <text x="410" y="114" text-anchor="middle" font-size="11" fill="#93c5fd" font-weight="700">Agent Server</text>
  <text x="410" y="128" text-anchor="middle" font-size="9" fill="#4a6080">validates token</text>

  <!-- C API call -->
  <line x1="470" y1="117" x2="558" y2="117" stroke="#3b82f6" stroke-width="1.5" marker-end="url(#arrBlue)"/>
  <rect x="462" y="104" width="100" height="14" rx="3" fill="#0d1520"/>
  <text x="512" y="115" text-anchor="middle" font-size="8" fill="#3b82f6">am_run_agent(handle, id, prompt)</text>

  <!-- Thread Pool box -->
  <rect x="560" y="95" width="120" height="44" rx="7" fill="url(#entryGrad)" stroke="#1e3a5f" stroke-width="1.5"/>
  <text x="620" y="114" text-anchor="middle" font-size="11" fill="#93c5fd" font-weight="700">Thread Pool</text>
  <text x="620" y="128" text-anchor="middle" font-size="9" fill="#4a6080">dispatches work item</text>

  <!-- WorkItem box -->
  <line x1="680" y1="117" x2="748" y2="117" stroke="#3b82f6" stroke-width="1.5" marker-end="url(#arrBlue)"/>
  <rect x="750" y="95" width="390" height="44" rx="7" fill="#0f1e30" stroke="#1e3a5f" stroke-width="1"/>
  <text x="760" y="112" font-size="9" fill="#64748b">WorkItem  {</text>
  <text x="760" y="126" font-size="9" fill="#38bdf8">  prompt:</text>
  <text x="806" y="126" font-size="9" fill="#fbbf24"> "Research fusion energy advances",</text>
  <text x="760" y="139" font-size="9" fill="#64748b">  context: {},  history: [],  tools: [] }</text>

  <!-- Down arrow to pipeline -->
  <line x1="580" y1="139" x2="580" y2="155" stroke="#4a6080" stroke-width="1.5" marker-end="url(#arr)"/>

  <!-- ══ PIPELINE LABEL ══════════════════════════════════════════════ -->
  <rect x="20" y="157" width="1120" height="20" rx="4" fill="#0e1830" stroke="#1a2a40" stroke-width="1"/>
  <text x="580" y="171" text-anchor="middle" font-size="10" font-weight="700" fill="#475569" letter-spacing="2">PIPELINE  —  WorkItem passes through each stage in order</text>

  <!-- ══ STAGE ROWS ══════════════════════════════════════════════════ -->
  <!-- Each row: [stage box 200px] [flow arrow 40px] [annotation box rest] -->
  <!-- Stage box left edge: x=20, right: x=220 -->
  <!-- Annotation left: x=280 -->

  <!-- helper: stage y positions -->
  <!-- s1=180, s2=238, s3=296, s4=354, s5=412, s6=470(taller), s7=564(taller), s8=690, s9=748, respond=806 -->

  <!-- ── STAGE 1: OBSERVE ──────────────────────────────────────────── -->
  <rect x="20" y="180" width="240" height="50" rx="7" fill="url(#readGrad)" stroke="#1e3a5f" stroke-width="1"/>
  <rect x="20" y="180" width="5" height="50" rx="2" fill="#3b82f6"/>
  <text x="38" y="198" font-size="9" fill="#3b82f6" font-weight="700" letter-spacing="1">01 · OBSERVE</text>
  <text x="38" y="213" font-size="11" fill="#bfdbfe">Gather all available inputs</text>
  <text x="38" y="226" font-size="9" fill="#4a6080">prompt is ONE of several context sources</text>

  <!-- prompt tag -->
  <rect x="265" y="190" width="58" height="16" rx="8" fill="#1d4ed8" opacity="0.8"/>
  <text x="294" y="202" text-anchor="middle" font-size="8" fill="#bfdbfe" font-weight="700">prompt ▸</text>

  <!-- annotation -->
  <rect x="340" y="180" width="800" height="50" rx="7" fill="#0a1420" stroke="#1a2a3a" stroke-width="1"/>
  <text x="352" y="198" font-size="9" fill="#64748b">context built from:  </text>
  <rect x="432" y="184" width="110" height="15" rx="3" fill="#0f2040" stroke="#1e4070" stroke-width="1"/>
  <text x="487" y="195" text-anchor="middle" font-size="8" fill="#60a5fa">prompt (user input)</text>
  <rect x="549" y="184" width="120" height="15" rx="3" fill="#0f2040" stroke="#1e4070" stroke-width="1"/>
  <text x="609" y="195" text-anchor="middle" font-size="8" fill="#94a3b8">inbox messages</text>
  <rect x="677" y="184" width="90" height="15" rx="3" fill="#0f2040" stroke="#1e4070" stroke-width="1"/>
  <text x="722" y="195" text-anchor="middle" font-size="8" fill="#94a3b8">pipe inputs</text>
  <rect x="775" y="184" width="100" height="15" rx="3" fill="#0f2040" stroke="#1e4070" stroke-width="1"/>
  <text x="825" y="195" text-anchor="middle" font-size="8" fill="#94a3b8">blackboard</text>
  <text x="352" y="220" font-size="9" fill="#4a6080">WorkItem.context ← { prompt, messages, pipe_input, blackboard_snapshot, timestamp }</text>

  <!-- Down arrow -->
  <line x1="140" y1="230" x2="140" y2="242" stroke="#4a6080" stroke-width="1.5" marker-end="url(#arr)"/>

  <!-- ── STAGE 2: UNDERSTAND ────────────────────────────────────────── -->
  <rect x="20" y="244" width="240" height="50" rx="7" fill="url(#readGrad)" stroke="#1e3a5f" stroke-width="1"/>
  <rect x="20" y="244" width="5" height="50" rx="2" fill="#60a5fa"/>
  <text x="38" y="262" font-size="9" fill="#60a5fa" font-weight="700" letter-spacing="1">02 · UNDERSTAND</text>
  <text x="38" y="277" font-size="11" fill="#bfdbfe">Parse and classify the prompt</text>
  <text x="38" y="290" font-size="9" fill="#4a6080">extracts intent, task type, entities</text>

  <rect x="265" y="254" width="58" height="16" rx="8" fill="#1d4ed8" opacity="0.8"/>
  <text x="294" y="266" text-anchor="middle" font-size="8" fill="#bfdbfe" font-weight="700">prompt ▸</text>

  <rect x="340" y="244" width="800" height="50" rx="7" fill="#0a1420" stroke="#1a2a3a" stroke-width="1"/>
  <text x="352" y="262" font-size="9" fill="#64748b">classify(prompt) →</text>
  <rect x="436" y="248" width="100" height="15" rx="3" fill="#0f2040" stroke="#1e4070" stroke-width="1"/>
  <text x="486" y="259" text-anchor="middle" font-size="8" fill="#60a5fa">task_type: "research"</text>
  <rect x="545" y="248" width="130" height="15" rx="3" fill="#0f2040" stroke="#1e4070" stroke-width="1"/>
  <text x="610" y="259" text-anchor="middle" font-size="8" fill="#60a5fa">intent: "gather_information"</text>
  <rect x="685" y="248" width="150" height="15" rx="3" fill="#0f2040" stroke="#1e4070" stroke-width="1"/>
  <text x="760" y="259" text-anchor="middle" font-size="8" fill="#60a5fa">entities: ["fusion", "energy"]</text>
  <text x="352" y="284" font-size="9" fill="#4a6080">WorkItem.context ← { …, task_type, intent, entities }   ← prompt is parsed but not yet sent anywhere</text>

  <line x1="140" y1="294" x2="140" y2="306" stroke="#4a6080" stroke-width="1.5" marker-end="url(#arr)"/>

  <!-- ── STAGE 3: READ ──────────────────────────────────────────────── -->
  <rect x="20" y="308" width="240" height="50" rx="7" fill="url(#readGrad)" stroke="#1e3a5f" stroke-width="1"/>
  <rect x="20" y="308" width="5" height="50" rx="2" fill="#38bdf8"/>
  <text x="38" y="326" font-size="9" fill="#38bdf8" font-weight="700" letter-spacing="1">03 · READ</text>
  <text x="38" y="341" font-size="11" fill="#bfdbfe">Query memory with the prompt</text>
  <text x="38" y="354" font-size="9" fill="#4a6080">retrieves relevant conversation history</text>

  <rect x="265" y="318" width="58" height="16" rx="8" fill="#1d4ed8" opacity="0.8"/>
  <text x="294" y="330" text-anchor="middle" font-size="8" fill="#bfdbfe" font-weight="700">prompt ▸</text>

  <rect x="340" y="308" width="800" height="50" rx="7" fill="#0a1420" stroke="#1a2a3a" stroke-width="1"/>
  <text x="352" y="326" font-size="9" fill="#64748b">query_memory(prompt, entities) →</text>
  <rect x="486" y="312" width="160" height="15" rx="3" fill="#0f2040" stroke="#1e4070" stroke-width="1"/>
  <text x="566" y="323" text-anchor="middle" font-size="8" fill="#60a5fa">history: [prev turn 1, turn 2…]</text>
  <rect x="655" y="312" width="150" height="15" rx="3" fill="#0f2040" stroke="#1e4070" stroke-width="1"/>
  <text x="730" y="323" text-anchor="middle" font-size="8" fill="#60a5fa">memory_hits: ["fusion paper…"]</text>
  <text x="352" y="348" font-size="9" fill="#4a6080">WorkItem.context ← { …, history[], memory_hits[] }   ← prompt is a search key, not forwarded</text>

  <line x1="140" y1="358" x2="140" y2="370" stroke="#4a6080" stroke-width="1.5" marker-end="url(#arr)"/>

  <!-- ── STAGE 4: CODE INTEL ───────────────────────────────────────── -->
  <rect x="20" y="372" width="240" height="50" rx="7" fill="url(#readGrad)" stroke="#1e3a5f" stroke-width="1"/>
  <rect x="20" y="372" width="5" height="50" rx="2" fill="#06b6d4"/>
  <text x="38" y="390" font-size="9" fill="#06b6d4" font-weight="700" letter-spacing="1">04 · CODE INTEL</text>
  <text x="38" y="405" font-size="11" fill="#bfdbfe">Scan prompt for code references</text>
  <text x="38" y="418" font-size="9" fill="#4a6080">files, symbols, function names</text>

  <rect x="265" y="382" width="58" height="16" rx="8" fill="#1d4ed8" opacity="0.8"/>
  <text x="294" y="394" text-anchor="middle" font-size="8" fill="#bfdbfe" font-weight="700">prompt ▸</text>

  <rect x="340" y="372" width="800" height="50" rx="7" fill="#0a1420" stroke="#1a2a3a" stroke-width="1"/>
  <text x="352" y="390" font-size="9" fill="#64748b">scan_code_refs(prompt) →</text>
  <rect x="452" y="376" width="180" height="15" rx="3" fill="#0f2040" stroke="#1e4070" stroke-width="1"/>
  <text x="542" y="387" text-anchor="middle" font-size="8" fill="#94a3b8">code_refs: []  (none in this prompt)</text>
  <text x="352" y="412" font-size="9" fill="#4a6080">If code refs found: symbols, file_paths added to context.   This stage is a no-op when prompt has no code.</text>

  <line x1="140" y1="422" x2="140" y2="434" stroke="#4a6080" stroke-width="1.5" marker-end="url(#arr)"/>

  <!-- ── STAGE 5: LOCATE ───────────────────────────────────────────── -->
  <rect x="20" y="436" width="240" height="50" rx="7" fill="url(#readGrad)" stroke="#1e3a5f" stroke-width="1"/>
  <rect x="20" y="436" width="5" height="50" rx="2" fill="#0ea5e9"/>
  <text x="38" y="454" font-size="9" fill="#0ea5e9" font-weight="700" letter-spacing="1">05 · LOCATE</text>
  <text x="38" y="469" font-size="11" fill="#bfdbfe">Match tools to task type + prompt</text>
  <text x="38" y="482" font-size="9" fill="#4a6080">builds the tool list for the LLM</text>

  <rect x="265" y="446" width="58" height="16" rx="8" fill="#1d4ed8" opacity="0.8"/>
  <text x="294" y="458" text-anchor="middle" font-size="8" fill="#bfdbfe" font-weight="700">prompt ▸</text>

  <rect x="340" y="436" width="800" height="50" rx="7" fill="#0a1420" stroke="#1a2a3a" stroke-width="1"/>
  <text x="352" y="454" font-size="9" fill="#64748b">match_tools(task_type, prompt) →</text>
  <rect x="474" y="440" width="90" height="15" rx="3" fill="#0f2040" stroke="#1e4070" stroke-width="1"/>
  <text x="519" y="451" text-anchor="middle" font-size="8" fill="#60a5fa">web_search</text>
  <rect x="572" y="440" width="80" height="15" rx="3" fill="#0f2040" stroke="#1e4070" stroke-width="1"/>
  <text x="612" y="451" text-anchor="middle" font-size="8" fill="#60a5fa">web_fetch</text>
  <rect x="660" y="440" width="80" height="15" rx="3" fill="#0f2040" stroke="#1e4070" stroke-width="1"/>
  <text x="700" y="451" text-anchor="middle" font-size="8" fill="#60a5fa">mcp_tool</text>
  <text x="352" y="476" font-size="9" fill="#4a6080">WorkItem.context.tools ← [web_search, web_fetch, mcp_tool]   ← prompt is a selector, not yet sent</text>

  <line x1="140" y1="486" x2="140" y2="498" stroke="#f59e0b" stroke-width="2" marker-end="url(#arrYellow)"/>
  <!-- Label on arrow -->
  <rect x="148" y="487" width="100" height="12" rx="3" fill="#1a1200"/>
  <text x="198" y="497" text-anchor="middle" font-size="8" fill="#f59e0b">prompt assembled next ▸</text>

  <!-- ── STAGE 6: INJECT ── WIDE BOX ───────────────────────────────── -->
  <rect x="20" y="500" width="240" height="100" rx="7" fill="#1a1400" stroke="#78350f" stroke-width="1.5"/>
  <rect x="20" y="500" width="5" height="100" rx="2" fill="#f59e0b"/>
  <text x="38" y="519" font-size="9" fill="#f59e0b" font-weight="700" letter-spacing="1">06 · INJECT</text>
  <text x="38" y="534" font-size="11" fill="#fde68a">Build the assembled prompt</text>
  <text x="38" y="548" font-size="9" fill="#78350f">⬡ KEY TRANSFORMATION</text>
  <text x="38" y="562" font-size="9" fill="#92400e">All context merged into the</text>
  <text x="38" y="575" font-size="9" fill="#92400e">final string sent to the LLM.</text>
  <text x="38" y="589" font-size="9" fill="#92400e">Original prompt appears at</text>
  <text x="38" y="597" font-size="9" fill="#fbbf24">the end as the user message.</text>

  <!-- assembled prompt tag (larger) -->
  <rect x="265" y="518" width="68" height="18" rx="9" fill="#d97706"/>
  <text x="299" y="531" text-anchor="middle" font-size="8" fill="#fff" font-weight="700">assembled ▸</text>

  <!-- Assembled prompt breakdown box -->
  <rect x="340" y="500" width="800" height="100" rx="7" fill="#140f00" stroke="#78350f" stroke-width="1.5"/>
  <text x="352" y="518" font-size="9" fill="#f59e0b" font-weight="700">Assembled LLM Prompt  =</text>

  <!-- layer 1: system prompt -->
  <rect x="352" y="522" width="760" height="16" rx="3" fill="#1a1000" stroke="#5a3a00" stroke-width="1"/>
  <text x="360" y="534" font-size="8" fill="#78350f" font-weight="700">SYSTEM PROMPT + ROLE:  </text>
  <text x="468" y="534" font-size="8" fill="#a16207">"You are a research specialist. You have access to the following tools: web_search, web_fetch, mcp_tool. […]"</text>

  <!-- layer 2: context -->
  <rect x="352" y="541" width="760" height="16" rx="3" fill="#1a1000" stroke="#5a3a00" stroke-width="1"/>
  <text x="360" y="553" font-size="8" fill="#78350f" font-weight="700">CONTEXT (history, memory, blackboard):  </text>
  <text x="536" y="553" font-size="8" fill="#a16207">"[Previous turn: …]  [Memory: fusion paper 2024…]  [Blackboard: project=fusion]"</text>

  <!-- layer 3: tool definitions -->
  <rect x="352" y="560" width="760" height="16" rx="3" fill="#1a1000" stroke="#5a3a00" stroke-width="1"/>
  <text x="360" y="572" font-size="8" fill="#78350f" font-weight="700">TOOL DEFINITIONS:  </text>
  <text x="448" y="572" font-size="8" fill="#a16207">{"name":"web_search","description":"…","parameters":{…}},  {"name":"web_fetch",…}, …</text>

  <!-- layer 4: user message / original prompt -->
  <rect x="352" y="579" width="760" height="16" rx="3" fill="#292000" stroke="#d97706" stroke-width="1.5"/>
  <text x="360" y="591" font-size="8" fill="#fbbf24" font-weight="700">USER MESSAGE (original prompt):  </text>
  <text x="480" y="591" font-size="8" fill="#fde68a">"Research fusion energy advances"</text>
  <text x="900" y="591" font-size="8" fill="#f59e0b">← prompt appears here</text>

  <line x1="140" y1="600" x2="140" y2="612" stroke="#a855f7" stroke-width="2" marker-end="url(#arrPurple)"/>
  <rect x="148" y="601" width="90" height="12" rx="3" fill="#1a0040"/>
  <text x="193" y="611" text-anchor="middle" font-size="8" fill="#a855f7">sent to LLM now ▸</text>

  <!-- ── STAGE 7: REASON ── VERY WIDE BOX ──────────────────────────── -->
  <rect x="20" y="614" width="240" height="130" rx="7" fill="#1a0840" stroke="#5b21b6" stroke-width="1.5" filter="url(#glow)"/>
  <rect x="20" y="614" width="5" height="130" rx="2" fill="#a855f7"/>
  <text x="38" y="633" font-size="9" fill="#c084fc" font-weight="700" letter-spacing="1">07 · REASON  ⬡ LLM CALL</text>
  <text x="38" y="648" font-size="11" fill="#e9d5ff">Assembled prompt → LLM</text>
  <text x="38" y="662" font-size="9" fill="#7c3aed">THE KEY USAGE POINT.</text>
  <text x="38" y="676" font-size="9" fill="#6d28d9">LLM returns a response.</text>
  <text x="38" y="690" font-size="9" fill="#6d28d9">Actions are extracted and</text>
  <text x="38" y="703" font-size="9" fill="#6d28d9">executed. Results appended</text>
  <text x="38" y="716" font-size="9" fill="#6d28d9">to context. LLM re-called</text>
  <text x="38" y="729" font-size="9" fill="#c084fc">until no more actions.</text>
  <text x="38" y="741" font-size="9" fill="#7c3aed">Up to 3 retries w/ backoff.</text>

  <!-- LLM call tag -->
  <rect x="265" y="630" width="68" height="18" rx="9" fill="#7c3aed"/>
  <text x="299" y="643" text-anchor="middle" font-size="8" fill="#e9d5ff" font-weight="700">LLM call ▸</text>

  <!-- Action loop box -->
  <rect x="340" y="614" width="800" height="130" rx="7" fill="#0f0620" stroke="#5b21b6" stroke-width="1.5"/>

  <!-- First LLM call row -->
  <rect x="352" y="620" width="760" height="18" rx="3" fill="#1a0840"/>
  <text x="360" y="633" font-size="8" fill="#7c3aed" font-weight="700">1. llm.complete(assembled_prompt)</text>
  <text x="510" y="633" font-size="8" fill="#64748b">→</text>
  <text x="522" y="633" font-size="8" fill="#c084fc">response: "I'll search for recent fusion energy research. [TOOL: web_search] query: fusion energy 2025"</text>

  <!-- parse actions -->
  <rect x="352" y="641" width="760" height="16" rx="3" fill="#0a0320"/>
  <text x="360" y="652" font-size="8" fill="#6d28d9" font-weight="700">2. parse_actions(response)</text>
  <text x="476" y="652" font-size="8" fill="#64748b">→</text>
  <text x="490" y="652" font-size="8" fill="#a78bfa">actions: [ { type: "web_search", args: { query: "fusion energy 2025" } } ]</text>

  <!-- execute action -->
  <rect x="352" y="660" width="760" height="16" rx="3" fill="#0a0320"/>
  <text x="360" y="671" font-size="8" fill="#6d28d9" font-weight="700">3. execute_actions(actions)</text>
  <text x="472" y="671" font-size="8" fill="#64748b">→</text>
  <text x="490" y="671" font-size="8" fill="#a78bfa">results: [ "ITER achieves Q>1… Nature 2025… NIF records…" ]</text>

  <!-- append results -->
  <rect x="352" y="679" width="760" height="16" rx="3" fill="#0a0320"/>
  <text x="360" y="690" font-size="8" fill="#6d28d9" font-weight="700">4. context.append(results)</text>
  <text x="458" y="690" font-size="8" fill="#64748b">→</text>
  <text x="476" y="690" font-size="8" fill="#a78bfa">assembled_prompt updated with tool results</text>

  <!-- re-call LLM -->
  <rect x="352" y="698" width="760" height="16" rx="3" fill="#1a0840" stroke="#3b1f80" stroke-width="1"/>
  <text x="360" y="709" font-size="8" fill="#c084fc" font-weight="700">5. llm.complete(updated_assembled_prompt)</text>
  <text x="560" y="709" font-size="8" fill="#64748b">→</text>
  <text x="574" y="709" font-size="8" fill="#e9d5ff">final response text (no more actions → exits loop)</text>

  <!-- loop arrow inside box -->
  <path d="M 1048 698 C 1080 698 1080 660 1048 660" stroke="#a855f7" stroke-width="1" fill="none" stroke-dasharray="4,3" marker-end="url(#arrPurple)"/>
  <text x="1086" y="683" font-size="8" fill="#6d28d9" transform="rotate(90,1086,683)">loop</text>

  <text x="352" y="736" font-size="8" fill="#4a3570">Retry policy: LLM failure triggers exponential backoff — 1 s, 2 s, 4 s — up to 3 attempts before agent_failed event.</text>

  <line x1="140" y1="744" x2="140" y2="756" stroke="#4a6080" stroke-width="1.5" marker-end="url(#arr)"/>

  <!-- ── STAGE 8: TRANSFORM ─────────────────────────────────────────── -->
  <rect x="20" y="758" width="240" height="50" rx="7" fill="url(#outGrad)" stroke="#14532d" stroke-width="1"/>
  <rect x="20" y="758" width="5" height="50" rx="2" fill="#22c55e"/>
  <text x="38" y="776" font-size="9" fill="#22c55e" font-weight="700" letter-spacing="1">08 · TRANSFORM</text>
  <text x="38" y="791" font-size="11" fill="#bbf7d0">Clean and format LLM output</text>
  <text x="38" y="804" font-size="9" fill="#14532d">prompt no longer referenced</text>

  <rect x="265" y="768" width="68" height="16" rx="8" fill="#15803d" opacity="0.8"/>
  <text x="299" y="780" text-anchor="middle" font-size="8" fill="#bbf7d0" font-weight="700">output ▸</text>

  <rect x="340" y="758" width="800" height="50" rx="7" fill="#071408" stroke="#14532d" stroke-width="1"/>
  <text x="352" y="776" font-size="9" fill="#64748b">clean(llm_response) →</text>
  <text x="434" y="776" font-size="9" fill="#4ade80">strip markdown artifacts, normalize whitespace, enforce max_length</text>
  <text x="352" y="798" font-size="9" fill="#4a6080">WorkItem.output ← formatted_response_text   ← the original prompt is no longer referenced here</text>

  <line x1="140" y1="808" x2="140" y2="820" stroke="#4a6080" stroke-width="1.5" marker-end="url(#arr)"/>

  <!-- ── STAGE 9: VALIDATE ──────────────────────────────────────────── -->
  <rect x="20" y="822" width="240" height="60" rx="7" fill="url(#outGrad)" stroke="#14532d" stroke-width="1"/>
  <rect x="20" y="822" width="5" height="60" rx="2" fill="#f97316"/>
  <text x="38" y="840" font-size="9" fill="#f97316" font-weight="700" letter-spacing="1">09 · VALIDATE</text>
  <text x="38" y="855" font-size="11" fill="#bbf7d0">Check output quality</text>
  <text x="38" y="868" font-size="9" fill="#14532d">if invalid → retry REASON</text>
  <text x="38" y="879" font-size="9" fill="#14532d">if valid → proceed</text>

  <rect x="265" y="832" width="68" height="16" rx="8" fill="#15803d" opacity="0.8"/>
  <text x="299" y="844" text-anchor="middle" font-size="8" fill="#bbf7d0" font-weight="700">output ▸</text>

  <rect x="340" y="822" width="800" height="60" rx="7" fill="#071408" stroke="#14532d" stroke-width="1"/>
  <text x="352" y="840" font-size="9" fill="#64748b">check(formatted_output) →</text>
  <text x="450" y="840" font-size="9" fill="#4ade80">is_valid: true/false</text>
  <text x="352" y="856" font-size="9" fill="#4a6080">If valid  →  proceed to RESPOND</text>
  <text x="352" y="870" font-size="9" fill="#4a6080">If invalid  →  re-enter REASON with updated context (up to 3 retries); assembled prompt rebuilt each time</text>

  <!-- Retry arc: validate back to reason -->
  <path d="M 20 852 C -24 852 -24 678 20 678" stroke="#f97316" stroke-width="1.5" fill="none" stroke-dasharray="5,3" marker-end="url(#arrOrange)"/>
  <text x="-22" y="765" font-size="8" fill="#f97316" transform="rotate(-90,-22,765)">RETRY</text>

  <line x1="140" y1="882" x2="140" y2="894" stroke="#22c55e" stroke-width="2" marker-end="url(#arrGreen)"/>

  <!-- ── RESPOND ── ──────────────────────────────────────────────────── -->
  <rect x="20" y="896" width="240" height="50" rx="7" fill="#041a0a" stroke="#16a34a" stroke-width="2"/>
  <rect x="20" y="896" width="5" height="50" rx="2" fill="#16a34a"/>
  <text x="38" y="914" font-size="9" fill="#16a34a" font-weight="700" letter-spacing="1">RESPOND  ✓ DONE</text>
  <text x="38" y="929" font-size="11" fill="#86efac">Emit result to callers</text>
  <text x="38" y="942" font-size="9" fill="#14532d">agent_finished event fired</text>

  <rect x="265" y="906" width="68" height="16" rx="8" fill="#15803d"/>
  <text x="299" y="918" text-anchor="middle" font-size="8" fill="#86efac" font-weight="700">result ▸</text>

  <rect x="340" y="896" width="800" height="50" rx="7" fill="#041408" stroke="#166534" stroke-width="1.5"/>
  <text x="352" y="914" font-size="9" fill="#64748b">emit(agent_finished, { agent_id, result, duration_ms, prompt_tokens, completion_tokens })</text>
  <text x="352" y="930" font-size="9" fill="#4a6080">EventBus → WebSocket /events → React UI (useEvents hook → TanStack Query invalidates cache → component re-renders)</text>
  <text x="352" y="944" font-size="9" fill="#4a6080">am_future_wait() in Agent Server unblocks → HTTP 200 response also returned to original POST caller</text>

  <!-- ══ SUMMARY ROW ═════════════════════════════════════════════════ -->
  <rect x="20" y="955" width="1120" height="70" rx="7" fill="#0a0e18" stroke="#1e2a40" stroke-width="1"/>
  <text x="30" y="972" font-size="9" fill="#64748b" font-weight="700">PROMPT USAGE SUMMARY</text>
  <line x1="20" y1="976" x2="1140" y2="976" stroke="#1e2a40" stroke-width="1"/>

  <rect x="30" y="982" width="10" height="10" rx="2" fill="#1d4ed8"/>
  <text x="46" y="991" font-size="9" fill="#64748b">Stages 1–5: prompt READ as raw string — used to build context, classify task, query memory, select tools. Never forwarded externally.</text>

  <rect x="30" y="997" width="10" height="10" rx="2" fill="#d97706"/>
  <text x="46" y="1006" font-size="9" fill="#64748b">Stage 6: prompt ASSEMBLED — merged with system_prompt + history + tool_defs into one string. This is the actual LLM input.</text>

  <rect x="30" y="1012" width="10" height="10" rx="2" fill="#7c3aed"/>
  <text x="46" y="1021" font-size="9" fill="#64748b">Stage 7: assembled prompt SENT to LLM. Actions may cause re-assembly with tool results → LLM re-called. Original prompt is now deep in the message history.</text>
</svg>
